<svg width="512" height="512" viewBox="0 0 512 512" fill="none" xmlns="http://www.w3.org/2000/svg">
<circle cx="256" cy="256" r="237" fill="#004643"/>
<path d="M96.4515 190.448C106.791 185.56 117.515 181.004 128.478 176.787M366.338 144.754C350.632 139.354 325.875 137.645 296.315 139.449M366.338 144.754L353.835 90.1824M366.338 144.754C373.467 147.205 379.966 150.583 385.589 154.655M404.675 178.107C414.079 201.689 395.014 215.526 390.315 221.325M404.675 178.107L385.454 115.528C381.419 108.72 371.713 97.107 359.224 92.1587C357.468 91.4631 355.671 90.8045 353.835 90.1824M404.675 178.107C401.116 169.181 394.436 161.06 385.589 154.655M390.315 221.325L373.857 168.835M390.315 221.325C379.188 231.994 355.109 243.674 337.091 251.588M129.155 341.137C128.606 351.552 144.201 357.871 144.201 357.871C144.201 357.871 159.444 365.499 173.632 372.619M129.155 341.137C129.338 337.653 129.871 332.817 139.294 325.918M129.155 341.137L128.7 276.8C128.7 276.8 131.531 273.101 137.291 270.106M195.568 383.665C191.759 381.724 182.921 377.28 173.632 372.619M92.883 133.093C103.633 127.858 114.737 122.934 126.064 118.365M126.064 118.365L128.478 176.787M126.064 118.365C152.949 107.519 181.09 98.6717 208.72 92.4003M128.478 176.787C157.276 165.708 187.722 156.966 217.183 150.672M208.72 92.4003L217.183 150.672M208.72 92.4003C235.151 86.4009 261.114 82.7592 285.063 81.9819M217.183 150.672C245.208 144.684 272.341 140.911 296.315 139.449M285.063 81.9819L296.315 139.449M285.063 81.9819C311.005 81.14 334.584 83.6588 353.835 90.1824M385.589 154.655C385.589 154.655 382.957 160.5 373.857 168.835M325.052 198.647C332.951 194.665 351.574 185.203 360.685 179.086C366.12 175.437 370.444 171.961 373.857 168.835M325.052 198.647C317.153 202.628 265.636 221.351 260.591 223.284M325.052 198.647L337.091 251.588M260.591 223.284C255.546 225.217 195.179 245.123 191.259 246.565M260.591 223.284L269.341 277.065M191.259 246.565C174.481 252.277 146.891 265.115 137.291 270.106M191.259 246.565L196.607 301.418M137.291 270.106L139.294 325.918M337.091 251.588C326.072 256.429 317.32 259.861 315.186 260.791C307.525 264.133 290.075 270.131 269.341 277.065M269.341 277.065C246.171 284.814 218.9 293.731 196.607 301.418M196.607 301.418C186.014 305.07 176.545 308.445 169.174 311.284M139.294 325.918C143.214 323.047 148.959 319.834 157.379 316.239C160.145 314.887 164.178 313.209 169.174 311.284M192.172 333.464C192.172 333.464 175.078 324.318 171.965 320.856M171.965 320.856C168.852 317.394 169.174 311.284 169.174 311.284M171.965 320.856L173.632 372.619" stroke="#F9BC60" stroke-width="8" stroke-linecap="round" stroke-linejoin="round"/>
<path d="M289.685 372.129C293.121 366.785 321.75 340.637 323.468 341.782C325.185 342.927 321.75 382.436 318.887 387.016M289.685 372.129C286.25 377.473 283.387 416.79 285.105 417.363C286.823 417.936 316.024 391.597 318.887 387.016M289.685 372.129L298.847 376.71M318.887 387.016L309.726 382.435M298.847 376.71C299.992 374.992 304.573 373.045 306.863 374.419C309.153 375.794 310.585 380.718 309.726 382.435M298.847 376.71C297.702 378.427 298.847 383.581 301.137 384.726C303.427 385.871 308.867 384.153 309.726 382.435M337.782 369.266L344.653 366.976M338.927 382.435H345.798M335.492 395.032L341.79 397.895M271.935 363.54L266.21 360.677M269.073 377.282L262.202 376.71M270.79 389.879L263.919 392.169" stroke="#F9BC60" stroke-width="8" stroke-linecap="round" stroke-linejoin="round"/>
<circle cx="304" cy="379.573" r="58.9677" stroke="#F9BC60" stroke-width="8"/>
<circle cx="304" cy="379" r="75" stroke="#F9BC60" stroke-width="8"/>
</svg>
